<svg width="122" height="112" viewBox="0 0 122 112" fill="none" xmlns="http://www.w3.org/2000/svg">
<mask id="mask0_1_164" style="mask-type:luminance" maskUnits="userSpaceOnUse" x="0" y="0" width="122" height="112">
<path d="M121.107 0H0V111.181H121.107V0Z" fill="white"/>
<path d="M60.5543 85.9911C61.86 85.9911 62.9197 86.9639 62.9197 88.1626C62.9197 89.3613 61.86 90.3341 60.5543 90.3341C59.2487 90.3341 58.189 89.3613 58.189 88.1626C58.189 86.9639 59.2487 85.9911 60.5543 85.9911Z" fill="white"/>
</mask>
<g mask="url(#mask0_1_164)">
<mask id="mask1_1_164" style="mask-type:luminance" maskUnits="userSpaceOnUse" x="0" y="0" width="122" height="112">
<path d="M0 0.000534058H121.107V111.182H0V0.000534058Z" fill="white"/>
</mask>
<g mask="url(#mask1_1_164)">
<path d="M60.5525 85.9912C61.8582 85.9912 62.9179 86.9641 62.9179 88.1627C62.9179 89.3614 61.8582 90.3342 60.5525 90.3342C59.2468 90.3342 58.1871 89.3614 58.1871 88.1627C58.1871 86.9641 59.2468 85.9912 60.5525 85.9912Z" fill="#7D4D00"/>
<path d="M110.935 68.6193C110.935 74.6148 105.639 79.4768 99.1085 79.4768C92.5777 79.4768 87.2816 74.6148 87.2816 68.6193C87.2816 62.6237 92.5777 57.7617 99.1085 57.7617C105.639 57.7617 110.935 62.6237 110.935 68.6193Z" stroke="#7D4D00" stroke-width="5" stroke-miterlimit="10" stroke-linecap="round" stroke-linejoin="round"/>
<path d="M34.5309 105.534H2.36176V101.191C2.36176 91.597 11.5441 83.8186 21.9944 83.8186C28.3832 83.8186 34.7414 86.7241 38.1664 91.1757" stroke="#7D4D00" stroke-width="5" stroke-miterlimit="10" stroke-linecap="round" stroke-linejoin="round"/>
<path d="M82.938 91.1757C86.3631 86.7241 92.7212 83.8186 99.1101 83.8186C109.56 83.8186 118.743 91.597 118.743 101.191V105.534H86.5736" stroke="#7D4D00" stroke-width="5" stroke-miterlimit="10" stroke-linecap="round" stroke-linejoin="round"/>
<path d="M33.8223 68.6193C33.8223 74.6148 28.5262 79.4768 21.9954 79.4768C15.4646 79.4768 10.1685 74.6148 10.1685 68.6193C10.1685 62.6237 15.4646 57.7617 21.9954 57.7617C28.5262 57.7617 33.8223 62.6237 33.8223 68.6193Z" stroke="#7D4D00" stroke-width="5" stroke-miterlimit="10" stroke-linecap="round" stroke-linejoin="round"/>
<path d="M77.1093 59.931C77.1093 68.3261 69.6962 75.1316 60.5517 75.1316C51.4072 75.1316 43.9941 68.3261 43.9941 59.931C43.9941 51.536 51.4072 44.7305 60.5517 44.7305C69.6962 44.7305 77.1093 51.536 77.1093 59.931Z" stroke="#7D4D00" stroke-width="5" stroke-miterlimit="10" stroke-linecap="round" stroke-linejoin="round"/>
<path d="M60.4665 5.64377L55.3502 15.2483L43.9113 16.7727L52.1901 24.1797L50.2363 34.6399L60.4665 29.7019C64.3102 31.5564 66.9644 32.8375 70.6994 34.6399L68.743 24.1797L77.0218 16.7727L65.5828 15.2483L60.4665 5.64377Z" stroke="#7D4D00" stroke-width="5" stroke-miterlimit="10" stroke-linecap="round" stroke-linejoin="round"/>
<path d="M100.588 42.2571L107.871 45.7706L106.48 38.3267L112.372 33.0521L104.228 31.9664L100.588 25.1913L96.9453 31.9664L88.8013 33.0521L94.6934 38.3267L93.3026 45.7706L100.588 42.2571Z" stroke="#7D4D00" stroke-width="5" stroke-miterlimit="10" stroke-linecap="round" stroke-linejoin="round"/>
<path d="M20.1643 42.2571L27.4473 45.7706L26.0564 38.3267L31.9486 33.0521L23.8046 31.9664L20.1643 25.1913L16.5216 31.9664L8.37762 33.0521L14.2698 38.3267L12.8789 45.7706L20.1643 42.2571Z" stroke="#7D4D00" stroke-width="5" stroke-miterlimit="10" stroke-linecap="round" stroke-linejoin="round"/>
<path d="M86.5702 105.534H34.532V103.362C34.532 98.9106 35.859 94.7435 38.1676 91.1757C42.7044 84.1704 51.0305 79.4756 60.5511 79.4756C67.7371 79.4756 74.2419 82.1487 78.949 86.4722C80.4794 87.8772 81.8206 89.4559 82.9347 91.1757C85.2433 94.7435 86.5702 98.9106 86.5702 103.362V105.534Z" stroke="#7D4D00" stroke-width="5" stroke-miterlimit="10" stroke-linecap="round" stroke-linejoin="round"/>
<path d="M69.6191 90.6483C72.15 92.1748 74.2008 94.3203 75.5112 96.8479" stroke="#7D4D00" stroke-width="5" stroke-miterlimit="10" stroke-linecap="round" stroke-linejoin="round"/>
</g>
</g>
</svg>
