<svg width="121" height="121" viewBox="0 0 121 121" fill="none" xmlns="http://www.w3.org/2000/svg">
<g clip-path="url(#clip0_1_143)">
<path d="M14.0163 60.6153C14.0163 76.1603 21.7395 89.9015 33.5577 98.2108C35.6403 99.6759 35.7511 102.718 33.7506 104.293L33.6943 104.337C32.3881 105.365 30.5565 105.434 29.1958 104.478C15.3992 94.7887 6.38092 78.7544 6.38092 60.6153C6.38092 31.1934 30.7347 7.30859 60.0975 7.0575V14.6948C34.9489 14.944 14.0163 35.4085 14.0163 60.6153Z" fill="#7D4D00"/>
<path d="M61.4998 0.227992L75.5317 9.82604C76.2832 10.3402 76.2832 11.4489 75.5317 11.9631L61.4998 21.5612C60.6403 22.1492 59.4744 21.5335 59.4744 20.4931V1.29701C59.4744 0.255686 60.6403 -0.359135 61.4998 0.227992Z" fill="#7D4D00"/>
<path d="M106.911 60.3845C106.911 44.8395 99.1867 31.0983 87.3684 22.789C85.2858 21.324 85.175 18.2822 87.1755 16.7073L87.2318 16.663C88.5381 15.6346 90.3696 15.5662 91.7304 16.5217C105.528 26.2112 114.545 42.2454 114.545 60.3845C114.545 89.8064 90.233 113.691 60.8693 113.942V106.305C86.0179 106.056 106.911 85.5922 106.911 60.3845Z" fill="#7D4D00"/>
<path d="M59.4273 120.772L45.3953 111.174C44.6439 110.66 44.6439 109.551 45.3953 109.037L59.4273 99.4386C60.2858 98.8506 61.4527 99.4663 61.4527 100.507V119.703C61.4527 120.744 60.2858 121.36 59.4273 120.772Z" fill="#7D4D00"/>
<path d="M84.2814 54.5492L61.2967 73.6106L55.502 78.4165C54.1367 79.5474 52.4085 80.1613 50.6508 80.1613C50.3582 80.1613 50.0656 80.1447 49.7701 80.1105C47.7198 79.8696 45.8329 78.7821 44.5949 77.1287L35.6569 65.2145C33.6389 62.5235 34.1845 58.7034 36.8764 56.6817C39.5702 54.6637 43.3902 55.2093 45.4092 57.9012L51.4429 65.9465L51.4918 65.9068L76.502 45.1654C79.0933 43.0181 82.9354 43.3763 85.0836 45.9676C87.2318 48.5589 86.8727 52.4011 84.2814 54.5492Z" fill="#7D4D00"/>
<path d="M84.2814 54.5492L61.2967 73.6106C57.5376 71.7338 54.2317 69.1397 51.4918 65.9068L76.502 45.1654C79.0933 43.0181 82.9354 43.3763 85.0836 45.9676C87.2318 48.5589 86.8727 52.4011 84.2814 54.5492Z" fill="#7D4D00"/>
</g>
<defs>
<clipPath id="clip0_1_143">
<rect width="121" height="121" fill="white"/>
</clipPath>
</defs>
</svg>
