<svg width="114" height="114" viewBox="0 0 114 114" fill="none" xmlns="http://www.w3.org/2000/svg">
<path d="M101.531 14.25H92.625V10.6875C92.625 8.79783 91.8743 6.98556 90.5381 5.64936C89.2019 4.31317 87.3897 3.5625 85.5 3.5625C83.6103 3.5625 81.7981 4.31317 80.4619 5.64936C79.1257 6.98556 78.375 8.79783 78.375 10.6875V14.25H64.125V10.6875C64.125 8.79783 63.3743 6.98556 62.0381 5.64936C60.7019 4.31317 58.8897 3.5625 57 3.5625C55.1103 3.5625 53.2981 4.31317 51.9619 5.64936C50.6257 6.98556 49.875 8.79783 49.875 10.6875V14.25H35.625V10.6875C35.625 8.79783 34.8743 6.98556 33.5381 5.64936C32.2019 4.31317 30.3897 3.5625 28.5 3.5625C26.6103 3.5625 24.7981 4.31317 23.4619 5.64936C22.1257 6.98556 21.375 8.79783 21.375 10.6875V14.25H12.4688C10.1067 14.25 7.84133 15.1883 6.17108 16.8586C4.50083 18.5288 3.5625 20.7942 3.5625 23.1562V94.4062C3.5625 96.7683 4.50083 99.0337 6.17108 100.704C7.84133 102.374 10.1067 103.312 12.4688 103.312H62.3438C62.8162 103.312 63.2692 103.125 63.6033 102.791C63.9373 102.457 64.125 102.004 64.125 101.531C64.125 101.059 63.9373 100.606 63.6033 100.272C63.2692 99.9377 62.8162 99.75 62.3438 99.75H12.4688C11.0528 99.7458 9.69605 99.1814 8.69482 98.1802C7.69359 97.1789 7.12923 95.8222 7.125 94.4062V39.1875H106.875V69.4688C106.875 69.9412 107.063 70.3942 107.397 70.7283C107.731 71.0623 108.184 71.25 108.656 71.25C109.129 71.25 109.582 71.0623 109.916 70.7283C110.25 70.3942 110.438 69.9412 110.438 69.4688V23.1562C110.438 20.7942 109.499 18.5288 107.829 16.8586C106.159 15.1883 103.893 14.25 101.531 14.25ZM81.9375 10.6875C81.9375 9.74267 82.3128 8.83653 82.9809 8.16843C83.649 7.50033 84.5552 7.125 85.5 7.125C86.4448 7.125 87.351 7.50033 88.0191 8.16843C88.6872 8.83653 89.0625 9.74267 89.0625 10.6875V21.375C89.0625 22.3198 88.6872 23.226 88.0191 23.8941C87.351 24.5622 86.4448 24.9375 85.5 24.9375C84.5552 24.9375 83.649 24.5622 82.9809 23.8941C82.3128 23.226 81.9375 22.3198 81.9375 21.375V10.6875ZM53.4375 10.6875C53.4375 9.74267 53.8128 8.83653 54.4809 8.16843C55.149 7.50033 56.0552 7.125 57 7.125C57.9448 7.125 58.851 7.50033 59.5191 8.16843C60.1872 8.83653 60.5625 9.74267 60.5625 10.6875V21.375C60.5625 22.3198 60.1872 23.226 59.5191 23.8941C58.851 24.5622 57.9448 24.9375 57 24.9375C56.0552 24.9375 55.149 24.5622 54.4809 23.8941C53.8128 23.226 53.4375 22.3198 53.4375 21.375V10.6875ZM24.9375 10.6875C24.9375 9.74267 25.3128 8.83653 25.9809 8.16843C26.649 7.50033 27.5552 7.125 28.5 7.125C29.4448 7.125 30.351 7.50033 31.0191 8.16843C31.6872 8.83653 32.0625 9.74267 32.0625 10.6875V21.375C32.0625 22.3198 31.6872 23.226 31.0191 23.8941C30.351 24.5622 29.4448 24.9375 28.5 24.9375C27.5552 24.9375 26.649 24.5622 25.9809 23.8941C25.3128 23.226 24.9375 22.3198 24.9375 21.375V10.6875ZM106.875 35.625H7.125V23.1562C7.12923 21.7403 7.69359 20.3836 8.69482 19.3823C9.69605 18.3811 11.0528 17.8167 12.4688 17.8125H21.375V21.375C21.375 23.2647 22.1257 25.0769 23.4619 26.4131C24.7981 27.7493 26.6103 28.5 28.5 28.5C30.3897 28.5 32.2019 27.7493 33.5381 26.4131C34.8743 25.0769 35.625 23.2647 35.625 21.375V17.8125H49.875V21.375C49.875 23.2647 50.6257 25.0769 51.9619 26.4131C53.2981 27.7493 55.1103 28.5 57 28.5C58.8897 28.5 60.7019 27.7493 62.0381 26.4131C63.3743 25.0769 64.125 23.2647 64.125 21.375V17.8125H78.375V21.375C78.375 23.2647 79.1257 25.0769 80.4619 26.4131C81.7981 27.7493 83.6103 28.5 85.5 28.5C87.3897 28.5 89.2019 27.7493 90.5381 26.4131C91.8743 25.0769 92.625 23.2647 92.625 21.375V17.8125H101.531C102.947 17.8167 104.304 18.3811 105.305 19.3823C106.306 20.3836 106.871 21.7403 106.875 23.1562V35.625Z" fill="#7D4D00"/>
<path d="M53.4375 51.6562C53.4375 50.7114 53.0622 49.8053 52.3941 49.1372C51.726 48.4691 50.8198 48.0938 49.875 48.0938H42.75C41.8052 48.0938 40.899 48.4691 40.2309 49.1372C39.5628 49.8053 39.1875 50.7114 39.1875 51.6562V57C39.1875 57.9448 39.5628 58.851 40.2309 59.5191C40.899 60.1872 41.8052 60.5625 42.75 60.5625H49.875C50.8198 60.5625 51.726 60.1872 52.3941 59.5191C53.0622 58.851 53.4375 57.9448 53.4375 57V51.6562ZM42.75 57V51.6562H49.875V57H42.75Z" fill="#7D4D00"/>
<path d="M32.0625 51.6562C32.0625 50.7114 31.6872 49.8053 31.0191 49.1372C30.351 48.4691 29.4448 48.0938 28.5 48.0938H21.375C20.4302 48.0938 19.524 48.4691 18.8559 49.1372C18.1878 49.8053 17.8125 50.7114 17.8125 51.6562V57C17.8125 57.9448 18.1878 58.851 18.8559 59.5191C19.524 60.1872 20.4302 60.5625 21.375 60.5625H28.5C29.4448 60.5625 30.351 60.1872 31.0191 59.5191C31.6872 58.851 32.0625 57.9448 32.0625 57V51.6562ZM21.375 57V51.6562H28.5V57H21.375Z" fill="#7D4D00"/>
<path d="M92.625 60.5625C93.5698 60.5625 94.476 60.1872 95.1441 59.5191C95.8122 58.851 96.1875 57.9448 96.1875 57V51.6562C96.1875 50.7114 95.8122 49.8053 95.1441 49.1372C94.476 48.4691 93.5698 48.0938 92.625 48.0938H85.5C84.5552 48.0938 83.649 48.4691 82.9809 49.1372C82.3128 49.8053 81.9375 50.7114 81.9375 51.6562V57C81.9375 57.9448 82.3128 58.851 82.9809 59.5191C83.649 60.1872 84.5552 60.5625 85.5 60.5625H92.625ZM85.5 51.6562H92.625V57H85.5V51.6562Z" fill="#7D4D00"/>
<path d="M53.4375 67.6875C53.4375 66.7427 53.0622 65.8365 52.3941 65.1684C51.726 64.5003 50.8198 64.125 49.875 64.125H42.75C41.8052 64.125 40.899 64.5003 40.2309 65.1684C39.5628 65.8365 39.1875 66.7427 39.1875 67.6875V73.0312C39.1875 73.9761 39.5628 74.8822 40.2309 75.5503C40.899 76.2184 41.8052 76.5938 42.75 76.5938H49.875C50.8198 76.5938 51.726 76.2184 52.3941 75.5503C53.0622 74.8822 53.4375 73.9761 53.4375 73.0312V67.6875ZM42.75 73.0312V67.6875H49.875V73.0312H42.75Z" fill="#7D4D00"/>
<path d="M32.0625 67.6875C32.0625 66.7427 31.6872 65.8365 31.0191 65.1684C30.351 64.5003 29.4448 64.125 28.5 64.125H21.375C20.4302 64.125 19.524 64.5003 18.8559 65.1684C18.1878 65.8365 17.8125 66.7427 17.8125 67.6875V73.0312C17.8125 73.9761 18.1878 74.8822 18.8559 75.5503C19.524 76.2184 20.4302 76.5938 21.375 76.5938H28.5C29.4448 76.5938 30.351 76.2184 31.0191 75.5503C31.6872 74.8822 32.0625 73.9761 32.0625 73.0312V67.6875ZM21.375 73.0312V67.6875H28.5V73.0312H21.375Z" fill="#7D4D00"/>
<path d="M49.875 80.1562H42.75C41.8052 80.1562 40.899 80.5316 40.2309 81.1997C39.5628 81.8678 39.1875 82.7739 39.1875 83.7188V89.0625C39.1875 90.0073 39.5628 90.9135 40.2309 91.5816C40.899 92.2497 41.8052 92.625 42.75 92.625H49.875C50.8198 92.625 51.726 92.2497 52.3941 91.5816C53.0622 90.9135 53.4375 90.0073 53.4375 89.0625V83.7188C53.4375 82.7739 53.0622 81.8678 52.3941 81.1997C51.726 80.5316 50.8198 80.1562 49.875 80.1562ZM42.75 89.0625V83.7188H49.875V89.0625H42.75Z" fill="#7D4D00"/>
<path d="M64.125 60.5625H71.25C72.1948 60.5625 73.101 60.1872 73.7691 59.5191C74.4372 58.851 74.8125 57.9448 74.8125 57V51.6562C74.8125 50.7114 74.4372 49.8053 73.7691 49.1372C73.101 48.4691 72.1948 48.0938 71.25 48.0938H64.125C63.1802 48.0938 62.274 48.4691 61.6059 49.1372C60.9378 49.8053 60.5625 50.7114 60.5625 51.6562V57C60.5625 57.9448 60.9378 58.851 61.6059 59.5191C62.274 60.1872 63.1802 60.5625 64.125 60.5625ZM64.125 51.6562H71.25V57H64.125V51.6562Z" fill="#7D4D00"/>
<path d="M60.5625 73.0312C60.5625 73.9761 60.9378 74.8822 61.6059 75.5503C62.274 76.2184 63.1802 76.5938 64.125 76.5938C64.5974 76.5938 65.0505 76.4061 65.3845 76.072C65.7186 75.738 65.9062 75.2849 65.9062 74.8125C65.9062 74.3401 65.7186 73.887 65.3845 73.553C65.0505 73.2189 64.5974 73.0312 64.125 73.0312V67.6875H71.25C71.7224 67.6875 72.1755 67.4998 72.5095 67.1658C72.8436 66.8317 73.0312 66.3787 73.0312 65.9062C73.0312 65.4338 72.8436 64.9808 72.5095 64.6467C72.1755 64.3127 71.7224 64.125 71.25 64.125H64.125C63.1802 64.125 62.274 64.5003 61.6059 65.1684C60.9378 65.8365 60.5625 66.7427 60.5625 67.6875V73.0312Z" fill="#7D4D00"/>
<path d="M28.5 80.1562H21.375C20.4302 80.1562 19.524 80.5316 18.8559 81.1997C18.1878 81.8678 17.8125 82.7739 17.8125 83.7188V89.0625C17.8125 90.0073 18.1878 90.9135 18.8559 91.5816C19.524 92.2497 20.4302 92.625 21.375 92.625H28.5C29.4448 92.625 30.351 92.2497 31.0191 91.5816C31.6872 90.9135 32.0625 90.0073 32.0625 89.0625V83.7188C32.0625 82.7739 31.6872 81.8678 31.0191 81.1997C30.351 80.5316 29.4448 80.1562 28.5 80.1562ZM21.375 89.0625V83.7188H28.5V89.0625H21.375Z" fill="#7D4D00"/>
<path d="M87.2812 64.125C82.7014 64.125 78.2244 65.4831 74.4163 68.0275C70.6083 70.572 67.6403 74.1885 65.8877 78.4197C64.135 82.651 63.6764 87.3069 64.5699 91.7988C65.4634 96.2907 67.6689 100.417 70.9073 103.655C74.1458 106.894 78.2718 109.099 82.7637 109.993C87.2556 110.886 91.9115 110.427 96.1428 108.675C100.374 106.922 103.991 103.954 106.535 100.146C109.079 96.3381 110.437 91.8611 110.437 87.2812C110.43 81.142 107.988 75.2562 103.647 70.9151C99.3063 66.574 93.4205 64.1321 87.2812 64.125ZM87.2812 106.875C83.406 106.875 79.6177 105.726 76.3955 103.573C73.1734 101.42 70.662 98.3597 69.179 94.7795C67.696 91.1992 67.308 87.2595 68.064 83.4587C68.82 79.6579 70.6861 76.1666 73.4264 73.4264C76.1666 70.6861 79.6579 68.82 83.4587 68.064C87.2595 67.308 91.1992 67.696 94.7795 69.179C98.3597 70.662 101.42 73.1734 103.573 76.3955C105.726 79.6177 106.875 83.406 106.875 87.2812C106.869 92.476 104.803 97.4561 101.129 101.129C97.4561 104.803 92.476 106.869 87.2812 106.875Z" fill="#7D4D00"/>
<path d="M97.5733 79.8142L83.7188 93.6688L77.422 87.3703C77.0861 87.0458 76.6361 86.8663 76.1691 86.8703C75.7021 86.8744 75.2553 87.0617 74.925 87.392C74.5948 87.7222 74.4075 88.169 74.4034 88.636C74.3993 89.1031 74.5789 89.553 74.9033 89.889L82.4594 97.4468C82.7934 97.7808 83.2464 97.9684 83.7188 97.9684C84.1911 97.9684 84.6441 97.7808 84.9781 97.4468L100.092 82.3329C100.416 81.997 100.596 81.547 100.592 81.08C100.588 80.6129 100.401 80.1662 100.07 79.8359C99.74 79.5057 99.2933 79.3183 98.8262 79.3143C98.3592 79.3102 97.9093 79.4898 97.5733 79.8142Z" fill="#7D4D00"/>
</svg>
